Coordinates
version=1
nRows=54
nColumns=12
inDegrees=yes

Units are S.I. units (second, meters, Newtons, ...)
Angles are in degrees

endheader
time	SC_y	SC_z	SC_x	AC_y	AC_z	AC_x	GH_y	GH_z	GH_yy	EL_x	PS_y
       0.0              -50.24          31.28          3.123          33.81         -7.427          1.434         -122.7          88.49          65.56          70.83          63.13
    0.0334              -50.23          31.27          3.131          33.81         -7.426          1.431         -122.7          88.49          65.55          70.82          63.14
    0.0668              -50.23          31.27           3.14          33.81         -7.426          1.428         -122.7          88.49          65.54          70.82          63.14
    0.1002              -50.23          31.26          3.149          33.81         -7.425          1.425         -122.7          88.49          65.53          70.81          63.15
    0.1336              -50.23          31.26          3.159          33.81         -7.424          1.422         -122.7          88.48          65.51           70.8          63.16
     0.167              -50.22          31.25          3.169          33.81         -7.423          1.419         -122.7          88.48           65.5           70.8          63.17
    0.2004              -50.22          31.24          3.181          33.81         -7.423          1.415         -122.7          88.48          65.49          70.79          63.18
    0.2338              -50.22          31.24          3.193          33.81         -7.422          1.412         -122.7          88.48          65.47          70.78           63.2
    0.2672              -50.21          31.23          3.206          33.81         -7.421          1.407         -122.7          88.48          65.46          70.77          63.21
    0.3006              -50.21          31.22           3.22          33.81          -7.42          1.403         -122.7          88.47          65.44          70.76          63.22
     0.334              -50.21          31.21          3.234          33.81         -7.419          1.398         -122.7          88.47          65.42          70.75          63.24
    0.3674               -50.2           31.2           3.25           33.8         -7.418          1.393         -122.7          88.47           65.4          70.74          63.25
    0.4008               -50.2          31.19          3.268           33.8         -7.416          1.388         -122.7          88.46          65.38          70.72          63.27
    0.4342              -50.19          31.18          3.286           33.8         -7.415          1.382         -122.7          88.46          65.36          70.71          63.29
    0.4676              -50.19          31.17          3.307           33.8         -7.414          1.376         -122.7          88.46          65.33           70.7          63.31
     0.501              -50.18          31.16          3.328           33.8         -7.412          1.369         -122.7          88.45           65.3          70.68          63.33
    0.5344              -50.18          31.14          3.352           33.8          -7.41          1.361         -122.8          88.45          65.28          70.66          63.35
    0.5678              -50.17          31.13          3.378           33.8         -7.408          1.353         -122.8          88.44          65.24          70.65          63.38
    0.6012              -50.16          31.11          3.406           33.8         -7.406          1.344         -122.8          88.44          65.21          70.63           63.4
    0.6346              -50.16          31.09          3.437           33.8         -7.404          1.334         -122.8          88.43          65.17           70.6          63.43
     0.668              -50.15          31.07          3.471           33.8         -7.402          1.323         -122.8          88.43          65.13          70.58          63.47
    0.7014              -50.14          31.05          3.509           33.8         -7.399          1.312         -122.8          88.42          65.08          70.55           63.5
    0.7348              -50.13          31.02           3.55           33.8         -7.396          1.298         -122.8          88.41          65.03          70.52          63.54
    0.7682              -50.11           31.0          3.596           33.8         -7.393          1.284         -122.8           88.4          64.97          70.49          63.59
    0.8016               -50.1          30.96          3.647           33.8         -7.389          1.268         -122.9          88.39          64.91          70.45          63.64
     0.835              -50.09          30.93          3.704           33.8         -7.385           1.25         -122.9          88.38          64.84          70.41          63.69
    0.8684              -50.07          30.89          3.767           33.8          -7.38           1.23         -122.9          88.37          64.76          70.37          63.75
    0.9018              -50.05          30.85          3.839           33.8         -7.375          1.207         -122.9          88.36          64.67          70.32          63.82
    0.9352              -50.03           30.8           3.92           33.8         -7.369          1.181         -122.9          88.34          64.58          70.26           63.9
    0.9686              -50.01          30.74          4.012           33.8         -7.363          1.152         -123.0          88.33          64.46          70.19          63.99
     1.002              -49.98          30.68          4.117           33.8         -7.355          1.119         -123.0          88.31          64.33          70.12          64.09
     1.035              -49.95          30.61          4.237          33.79         -7.346          1.081         -123.1          88.29          64.18          70.03          64.21
     1.069              -49.91          30.53          4.376          33.79         -7.336          1.037         -123.1          88.26          64.01          69.93          64.35
     1.102              -49.87          30.43          4.537          33.79         -7.325         0.9858         -123.2          88.23          63.81          69.82           64.5
     1.136              -49.82          30.32          4.726          33.79         -7.311          0.926         -123.2           88.2          63.58          69.68          64.69
     1.169              -49.76          30.18          4.949          33.79         -7.295         0.8555         -123.3          88.16          63.31          69.52           64.9
     1.202               -49.7          30.02          5.214          33.78         -7.276         0.7717         -123.4          88.11          62.98          69.33          65.16
     1.236              -49.61          29.83          5.531          33.78         -7.253         0.6713         -123.5          88.05          62.59          69.11          65.47
     1.269              -49.51           29.6          5.915          33.78         -7.225         0.5498         -123.6          87.98          62.12          68.83          65.84
     1.303              -49.39          29.32          6.384          33.77         -7.192         0.4014         -123.8          87.89          61.54           68.5           66.3
     1.336              -49.24          28.97          6.962          33.77          -7.15         0.2182         -124.0          87.79          60.83          68.09          66.86
     1.369              -49.06          28.54          7.684          33.76         -7.098       -0.01028         -124.2          87.65          59.94          67.57          67.56
     1.403              -48.82          27.99          8.593          33.75         -7.032        -0.2981         -124.5          87.49          58.82          66.92          68.44
     1.436              -48.52          27.29          9.748          33.74         -6.949        -0.6639         -124.9          87.27          57.39          66.09          69.57
      1.47              -48.14          26.41          11.23          33.72         -6.842         -1.132         -125.4           87.0          55.57          65.04           71.0
     1.503              -47.65          25.26          13.12           33.7         -6.705         -1.733         -126.1          86.65          53.23          63.68          72.85
     1.536              -47.02          23.81          15.55          33.67          -6.53         -2.501         -126.9          86.21          50.24          61.95           75.2
      1.57              -46.23          21.97           18.6          33.64          -6.31         -3.466         -127.9          85.65          46.48          59.77          78.16
     1.603              -45.27          19.74          22.31           33.6         -6.042         -4.642         -129.2          84.97           41.9          57.12          81.77
     1.637              -44.16          17.15          26.62          33.55         -5.732         -6.005         -130.7          84.18           36.6          54.04          85.96
      1.67              -42.95          14.34          31.28           33.5         -5.395         -7.481         -132.3          83.32          30.85          50.71          90.49
     1.703              -41.75          11.54          35.94          33.45         -5.059         -8.957         -133.8          82.47           25.1          47.38          95.02
     1.737              -40.63          8.951          40.25          33.41         -4.748         -10.32         -135.3          81.68          19.79           44.3           99.2
      1.77              -39.67          6.716          43.96          33.37          -4.48          -11.5         -136.6          80.99          15.22          41.65          102.8
